<svg width="24" height="24" viewBox="0 0 24 24" fill="none" xmlns="http://www.w3.org/2000/svg">
<path fill-rule="evenodd" clip-rule="evenodd" d="M4.93322 11.9657C2.98059 13.9183 2.98059 17.0842 4.93322 19.0368C6.88584 20.9894 10.0517 20.9894 12.0043 19.0368L12.0044 19.0367L12.0045 19.0368C13.9572 20.9894 17.123 20.9894 19.0756 19.0368C21.0282 17.0842 21.0282 13.9183 19.0756 11.9657L19.0755 11.9656C21.028 10.013 21.0279 6.84722 19.0754 4.89464C17.1228 2.94206 13.957 2.94202 12.0044 4.89452C10.0518 2.94202 6.88604 2.94206 4.93346 4.89464C2.98088 6.84722 2.98084 10.013 4.93334 11.9656L4.93322 11.9657Z" fill="#10B981"/>
</svg>
